<?xml version="1.0" encoding="UTF-8"?>
<svg width="100px" height="50px" viewBox="0 0 100 50" version="1.1" xmlns="http://www.w3.org/2000/svg" xmlns:xlink="http://www.w3.org/1999/xlink">
    <!-- Generator: Sketch 50 (54983) - http://www.bohemiancoding.com/sketch -->
    <title>bread</title>
    <desc>Created with Sketch.</desc>
    <defs></defs>
    <g id="Page-1" stroke="none" stroke-width="1" fill="none" fill-rule="evenodd">
        <g id="bread" fill="#000000" fill-rule="nonzero">
            <g id="Group">
                <path d="M71.396,15.649 C75.065,18.124 76.762,20.67 78.041,25.004 C78.297,25.86 78.476,27.17 78.31,28.128 C76.071,23.017 71.277,19.113 66.258,17.366 C60.691,15.428 54.66,16.11 50.517,17.682 C47.529,18.812 43.609,20.837 40.942,23.828 C45.808,24.921 49.238,26.364 52.323,31.04 C53.067,32.175 52.963,32.894 53.327,33.684 C47.728,28.471 36.844,24.438 30.445,28.445 C23.616,32.382 20.719,38.579 21.857,43.311 C24.118,52.73 41.984,50.487 63.451,45.328 C84.919,40.171 101.711,34.086 99.59,24.634 C97.895,17.056 82.17,11.772 71.396,15.649 Z" id="Shape"></path>
                <g id="Shape">
                    <path d="M28.801,25.707 C31.029,24.327 33.701,23.626 36.742,23.626 C36.743,23.626 36.743,23.626 36.744,23.626 C36.777,23.626 36.809,23.626 36.843,23.626 L38.557,21.704 C41.967,17.88 46.806,15.672 49.383,14.697 C51.549,13.875 53.997,13.331 56.465,13.107 C54.08,8.442 49.589,4.878 44.872,3.235 C39.304,1.298 33.274,1.98 29.131,3.551 C26.143,4.681 22.22,6.707 19.556,9.699 C24.422,10.791 27.851,12.234 30.938,16.911 C31.681,18.044 31.577,18.765 31.941,19.555 C26.343,14.34 15.458,10.308 9.059,14.315 C2.23,18.25 -0.667,24.447 0.471,29.181 C1.867,34.999 9.225,36.366 19.703,35.344 C21.35,31.635 24.505,28.194 28.801,25.707 Z"></path>
                    <path d="M56.655,10.874 C56.835,11.479 56.969,12.307 56.98,13.079 C57.649,13.03 58.32,12.989 58.984,12.989 C61.572,12.989 64.06,13.347 66.397,14.055 L70.314,12.646 C72.749,11.769 75.444,11.299 78.318,11.195 C78.288,10.966 78.256,10.736 78.204,10.503 C76.509,2.927 60.785,-2.359 50.01,1.519 C53.679,3.994 55.377,6.542 56.655,10.874 Z"></path>
                </g>
            </g>
        </g>
    </g>
</svg>